<svg focusable="false" width="1em" height="1em" fill="currentColor" xmlns="http://www.w3.org/2000/svg" class="icon" viewBox="0 0 512 512">
<g>
	<g>
		<path d="M483.4,123.9c-21-30-62.8-37.9-92.8-16.9l-154.3,108l-56.1-39.3C201,139.7,191.2,93,156.4,68.7
			C119.7,43,69.1,51.9,43.3,88.6C17.6,125.3,26.5,176,63.3,201.7c25.2,17.6,57,19,82.7,6.2l68.7,48.1L146,304.1
			c-25.7-12.8-57.5-11.4-82.7,6.2C26.5,336,17.6,386.7,43.3,423.4c25.7,36.7,76.3,45.7,113.1,19.9c34.8-24.4,44.6-71,23.7-107.1
			l56.1-39.3l154.3,108c30,21,71.8,13.1,92.8-16.9L294.7,256L483.4,123.9z M110,177.4c-23.2,0-42.1-18.8-42.1-42.1
			S86.8,93.3,110,93.3c23.3,0,42.1,18.8,42.1,42.1S133.3,177.4,110,177.4z M110,418.7c-23.2,0-42.1-18.8-42.1-42.1
			c0-23.2,18.8-42.1,42.1-42.1c23.3,0,42.1,18.8,42.1,42.1C152.1,399.9,133.3,418.7,110,418.7z"/>
	</g>
</g>
<g>
	<g>
		<rect x="354.1" y="244.8" width="39.3" height="28.1"/>
	</g>
</g>
<g>
	<g>
		<rect x="421.5" y="244.8" width="39.3" height="28.1"/>
	</g>
</g>
</svg>
