<svg focusable="false" width="1em" height="1em" fill="currentColor" xmlns="http://www.w3.org/2000/svg" class="icon"
     viewBox="0 0 512 512">
  <g>
    <g>
      <path d="M457.9,244.4L353.5,140c-3.2-3.2-9-3.2-12.2,0l-22.6,22.6c-3.4,3.4-3.4,8.9,0,12.2l75.6,75.6l-75.6,75.6
			c-3.4,3.4-3.4,8.9,0,12.2l22.6,22.6c1.6,1.6,3.8,2.5,6.1,2.5c2.3,0,4.5-0.9,6.1-2.5l104.3-104.3
			C461.2,253.2,461.2,247.7,457.9,244.4z"/>
      <path d="M193.3,326.1l-75.6-75.6l75.6-75.6c1.6-1.6,2.5-3.8,2.5-6.1c0-2.3-0.9-4.5-2.5-6.1L170.7,140c-1.6-1.6-3.8-2.5-6.1-2.5
			c-2.3,0-4.5,0.9-6.1,2.5L54.1,244.4c-3.4,3.4-3.4,8.9,0,12.2l104.3,104.3c1.6,1.6,3.8,2.5,6.1,2.5c2.3,0,4.5-0.9,6.1-2.5
			l22.6-22.6C196.7,334.9,196.7,329.5,193.3,326.1z"/>
      <path d="M315.3,104.9c-1.1-2-3-3.5-5.1-4.2l-18.3-5.4c-4.6-1.4-9.4,1.3-10.7,5.8L196,389.5c-0.6,2.2-0.4,4.6,0.7,6.6
			c1.1,2,3,3.5,5.1,4.2l18.3,5.4c0.8,0.2,1.6,0.4,2.5,0.4c3.7,0,7.2-2.4,8.3-6.2L316,111.5C316.7,109.3,316.4,106.9,315.3,104.9z"/>
    </g>
  </g>
</svg>
