<svg focusable="false" width="1em" height="1em" fill="currentColor" xmlns="http://www.w3.org/2000/svg" class="icon"
     viewBox="0 0 512 512">
  <g>
    <g>
      <g>
        <path d="M284.2,200.6c-24.2,0-43.9,19.6-43.9,43.9c0,24.2,19.6,43.9,43.9,43.9c24.2,0,43.9-19.6,43.9-43.9
				S308.4,200.6,284.2,200.6z M284.2,267.4c-12.7,0-23-10.3-23-23s10.3-23,23-23l0,0c12.7,0,23,10.3,23,23S296.9,267.4,284.2,267.4z
				"/>
        <path d="M459.2,100.2L174,67.9c-11.1-1.6-22.3,1.7-30.8,8.9c-8.5,6.6-14,16.4-15.2,27.2l-5.2,42.8h-16.2
				c-23,0-40.2,20.4-40.2,43.4v213.7c-0.6,21.9,16.7,40.2,38.6,40.7c0.5,0,1.1,0,1.6,0h286.8c23,0,43.9-17.8,43.9-40.8v-8.4
				c7.1-1.4,13.9-4.2,19.9-8.4c8.5-7.1,13.9-17.2,15.2-28.2l24-212.1C498.8,123.7,482.2,103,459.2,100.2z M416.4,403.8
				c0,11.5-11.5,19.9-23,19.9H106.6c-10.4,0.3-19-7.9-19.4-18.2c0-0.5,0-1.1,0-1.6v-38.7l81-59.6c9.7-7.5,23.4-6.8,32.4,1.6
				l56.9,50.2c8.6,7.3,19.5,11.3,30.8,11.5c8.8,0.1,17.5-2.2,25.1-6.8l102.9-59.6L416.4,403.8L416.4,403.8z M416.4,277.9
				l-113.9,66.4c-9.8,5.8-22.2,4.7-30.8-2.6l-57.5-50.7c-16.5-14.2-40.5-15-58-2.1l-69,50.2V190.1c0-11.5,7.8-22.5,19.3-22.5h286.8
				c12.3,0.5,22.2,10.2,23,22.5L416.4,277.9L416.4,277.9z M475.4,143.9c0,0.1,0,0.1,0,0.2l-24.6,212.1c0,5.5-2.5,10.7-6.8,14.1
				c-2.1,2.1-6.8,3.1-6.8,4.2V190.1c-0.8-23.8-20.1-42.8-43.9-43.4H143.7l4.7-40.8c1-5.3,3.8-10.1,7.8-13.6
				c4.6-3.2,10.1-4.6,15.7-4.2l284.7,32.9C468.1,122.2,476.5,132.4,475.4,143.9z"/>
      </g>
    </g>
  </g>
</svg>
