<svg focusable="false" width="1em" height="1em" fill="currentColor" xmlns="http://www.w3.org/2000/svg" class="icon"
     viewBox="0 0 512 512">
  <g>
    <g>
      <path d="M416.1,41H95.9C65.6,41,41,65.6,41,95.9v320.1c0,30.3,24.6,54.9,54.9,54.9h320.1c30.3,0,54.9-24.6,54.9-54.9V95.9
			C471,65.6,446.4,41,416.1,41z M445.7,416.1c0,16.3-13.3,29.6-29.6,29.6H95.9c-16.3,0-29.6-13.3-29.6-29.6v-46.2l83.4-71
			c3.1-2.6,7.5-2.7,10.5-0.1l52.2,43.4c5,4.1,12.4,3.8,17-0.8l124-124.2c2.3-2.3,4.8-2.5,6.2-2.4s3.9,0.6,5.9,3.1l79.9,98.4
			L445.7,416.1L445.7,416.1z M445.7,276.1l-60.2-74.2c-6-7.4-14.9-11.8-24.3-12.3s-18.7,3.1-25.4,9.8l-116,116l-43.3-36
			c-12.6-10.4-30.7-10.3-43.1,0.3l-66.9,57V95.9c0-16.3,13.3-29.6,29.6-29.6h320.1c16.3,0,29.6,13.3,29.6,29.6L445.7,276.1
			L445.7,276.1z"/>
    </g>
  </g>
  <g>
    <g>
      <path d="M176.4,93.9c-33.7,0-61,27.4-61,61s27.4,61,61,61s61-27.4,61-61S210,93.9,176.4,93.9z M176.4,190.7
			c-19.7,0-35.7-16-35.7-35.7s16-35.7,35.7-35.7s35.7,16,35.7,35.7S196,190.7,176.4,190.7z"/>
    </g>
  </g>
</svg>
