<svg focusable="false" width="1em" height="1em" fill="currentColor" xmlns="http://www.w3.org/2000/svg" class="icon" viewBox="0 0 512 512">
<g>
	<path d="M225.7,167.9c7-3.5,10.4-13.9,7-20.9l-13.9-31.3c-3.5-7-13.9-10.4-20.9-7c-20.9,10.4-41.8,24.4-59.2,38.3
		c-17.4,17.4-31.3,38.3-38.3,62.7c-7,20.9-10.4,52.2-10.4,94v83.5c0,10.4,7,17.4,17.4,17.4h104.4c10.4,0,17.4-7,17.4-17.4V282.8
		c0-10.4-7-17.4-17.4-17.4H163c0-27.8,7-48.7,17.4-66.1C190.9,185.4,204.8,174.9,225.7,167.9z"/>
	<path d="M413.7,167.9c7-3.5,10.4-13.9,7-20.9l-13.9-27.8c0-10.4-10.4-13.9-17.4-10.4c-24.4,10.4-41.8,24.4-59.2,38.3
		c-17.4,17.4-31.3,38.3-38.3,62.7c-7,20.9-10.4,52.2-10.4,94v83.5c0,10.4,7,17.4,17.4,17.4h104.4c10.4,0,17.4-7,17.4-17.4V282.8
		c0-10.4-7-17.4-17.4-17.4H351c0-27.8,7-48.7,17.4-66.1C378.9,185.4,392.8,174.9,413.7,167.9z"/>
</g>
</svg>
