<svg focusable="false" width="1em" height="1em" fill="currentColor" xmlns="http://www.w3.org/2000/svg" class="icon"
     viewBox="0 0 512 512">
  <g>
    <polygon points="476,133.2 476,119.4 416.6,119.4 416.6,133.2 439.4,133.2 439.4,365.8 416.6,365.8 416.6,379.6 476,379.6
		476,365.8 453.2,365.8 453.2,133.2 	"/>
    <g>
      <path d="M56.8,323.3l69.5-157c4.8-10.8,13.7-17.4,25.7-17.4h2.6c12,0,20.5,6.6,25.4,17.4l69.5,157c1.4,3.1,2.3,6,2.3,8.8
			c0,11.7-9.1,21.1-20.8,21.1c-10.3,0-17.1-6-21.1-15.1l-13.4-31.3h-87.8l-14,32.8c-3.7,8.5-11.1,13.7-20.2,13.7
			c-11.4,0-20.2-9.1-20.2-20.5C54.2,329.6,55.3,326.5,56.8,323.3z M180.2,268l-27.6-65.8L124.9,268H180.2z"/>
      <path d="M272.5,307.7v-0.6c0-33.3,25.4-48.7,61.6-48.7c15.4,0,26.5,2.6,37.3,6.3v-2.6c0-18-11.1-27.9-32.8-27.9
			c-12,0-21.7,1.7-29.9,4.3c-2.6,0.9-4.3,1.1-6.3,1.1c-10,0-18-7.7-18-17.7c0-7.7,4.8-14.2,11.7-16.8c13.7-5.1,28.5-8,48.7-8
			c23.7,0,40.8,6.3,51.6,17.1c11.4,11.4,16.5,28.2,16.5,48.7v69.5c0,11.7-9.4,20.8-21.1,20.8c-12.5,0-20.8-8.8-20.8-18V335
			c-10.5,11.7-25.1,19.4-46.2,19.4C296.1,354.4,272.5,337.9,272.5,307.7z M371.9,297.7V290c-7.4-3.4-17.1-5.7-27.6-5.7
			c-18.5,0-29.9,7.4-29.9,21.1v0.6c0,11.7,9.7,18.5,23.7,18.5C358.3,324.5,371.9,313.4,371.9,297.7z"/>
    </g>
  </g>
</svg>
