<svg focusable="false" width="1em" height="1em" fill="currentColor" xmlns="http://www.w3.org/2000/svg" class="icon" viewBox="0 0 512 512">
<path d="M474.4,125c-27.5,1.3-26.9,1.2-30,1.4L460.7,80c0,0-50.8,18.7-63.7,22c-33.8-30.4-84.1-31.7-120-9.6
	c-29.4,18.1-45.2,49.2-40,85.5c-57.3-7.9-105.5-35.1-143.6-80.9l-12-14.5l-9,16.5c-11.4,20.9-15.2,44.8-10.6,67.3
	c1.9,9.2,5,18,9.4,26.3l-10.3-4l-1.2,17.3c-1.2,17.5,4.6,38,15.6,54.8c3.1,4.7,7.1,9.9,12.2,15l-5.3-0.8l6.5,19.8
	c8.6,26,26.4,46.1,49.5,57.3c-23.1,9.8-41.7,16-72.3,26.1l-28,9.2l25.9,14.1c9.9,5.4,44.7,23.4,79.2,28.8
	c76.6,12,162.8,2.2,220.8-50c48.9-44,64.9-106.7,61.6-171.8c-0.5-9.9,2.2-19.3,7.6-26.5C443.5,167.3,474.3,125.1,474.4,125z
	 M412.2,166.4c-9,12-13.5,27.3-12.7,43.1c3.4,65.7-14.5,116.7-53.2,151.5c-45.1,40.7-117.9,56.6-199.7,43.8
	c-14.8-2.3-30.1-7.5-42.8-12.7c25.7-8.8,45.5-16.7,77.5-31.9l44.7-21.2l-49.3-3.2c-23.6-1.5-43.3-13-55.4-31.6
	c6.4-0.4,12.6-1.4,18.8-3.1l47.1-13.1l-47.5-11.6c-23.1-5.6-36.2-19.4-43.2-30c-4.6-7-7.6-14.1-9.4-20.6c4.8,1.3,10.3,2.2,19.3,3.1
	l43.9,4.3l-34.8-27.1c-25.1-19.6-35.1-48.9-27.8-77.2c78.3,81.2,170.2,75.1,179.4,77.2c-2-19.8-2.1-19.8-2.6-21.7
	c-11.8-41.9,14.1-63.1,25.8-70.3c24.5-15,63.3-17.3,90.2,7.5c5.8,5.3,13.7,7.4,21,5.6c6.6-1.6,12-3.4,17.3-5.3l-11,31.5l14.1,0
	C419.3,157,416.1,161.3,412.2,166.4z"/>
</svg>
