<svg focusable="false" width="1em" height="1em" fill="currentColor" xmlns="http://www.w3.org/2000/svg" class="icon"
     viewBox="0 0 512 512">
  <path d="M460.9,145.1c4-8.1,0-16.1-12.1-16.1h-48.3c-12.1,0-20.1,4-20.1,12.1c0,0-24.2,56.4-56.4,96.7
	c-12.1,12.1-20.1,16.1-24.2,16.1c-4,0-8.1-4-8.1-16.1v-92.6c0-12.1-4-16.1-12.1-16.1h-76.5c-8.1,0-12.1,4-12.1,12.1
	c0,12.1,16.1,16.1,20.1,44.3v68.5c0,16.1-4,16.1-8.1,16.1c-16.1,0-56.4-60.4-76.5-124.9c-8.1-12.1-12.1-16.1-24.2-16.1H58.1
	C42,129,42,133,42,141.1c0,12.1,16.1,72.5,72.5,157.1c40.3,56.4,92.6,84.6,145,84.6c28.2,0,32.2-8.1,32.2-20.1v-40.3
	c0-12.1,4-16.1,12.1-16.1c8.1,0,20.1,4,48.3,32.2c32.2,32.2,36.2,44.3,52.4,44.3h48.3c12.1,0,20.1-8.1,16.1-20.1
	s-20.1-32.2-40.3-56.4c-12.1-12.1-28.2-28.2-32.2-32.2c-4-8.1-4-12.1,0-20.1C396.5,253.8,452.8,173.3,460.9,145.1"/>
</svg>
